<svg xmlns="http://www.w3.org/2000/svg" width="85" height="34"><path fill-rule="evenodd" fill="#939393" d="M83.376 6.38a3.529 3.529 0 01-4.973-.017 3.452 3.452 0 01-.806-1.286L71.49 7.634l-.779-1.843 6.822-2.856c.16-.555.445-1.083.887-1.519a3.528 3.528 0 014.972.017 3.486 3.486 0 01-.016 4.947zm-1.409-3.538a1.513 1.513 0 00-2.132-.008 1.496 1.496 0 00-.007 2.121c.587.587 1.541.59 2.132.007.59-.584.593-1.533.007-2.12zM60.755 8.585l7.103-2.974.779 1.843-7.103 2.973-.779-1.842zm-10.668 3.497l7.103-2.973.779 1.842-7.103 2.974-.779-1.843zM39.418 15.58l7.103-2.973.779 1.842-7.102 2.973-.78-1.842zm-11.381 4.202l7.103-2.973.779 1.842-7.103 2.973-.779-1.842zm-11.381 4.202l7.103-2.974.779 1.843-7.103 2.973-.779-1.842zM6.558 32.976a3.529 3.529 0 01-4.973-.017 3.486 3.486 0 01.017-4.947c1.28-1.264 3.283-1.332 4.66-.24l6.115-2.56.78 1.843-5.735 2.4a3.471 3.471 0 01-.864 3.521zm-3.54-3.545a1.494 1.494 0 00-.007 2.12c.587.587 1.541.59 2.131.007a1.494 1.494 0 00.008-2.12 1.513 1.513 0 00-2.132-.007z"/></svg>