<svg display="none" xmlns="http://www.w3.org/2000/svg">
    <symbol id="caution">
        <g>
            <path
            d="M47.000,39.000 C46.452,40.355 44.000,41.000 44.000,41.000 L4.000,41.000 C4.000,41.000 1.936,41.220 1.000,39.000 C0.486,37.782 2.000,36.000 2.000,36.000 L20.000,3.000 C20.000,3.000 22.112,0.020 24.000,-0.000 C25.888,-0.020 28.000,3.000 28.000,3.000 L46.206,35.545 C46.206,35.545 47.555,37.627 47.000,39.000 ZM24.000,10.000 C21.682,9.936 21.000,13.000 21.000,13.000 L22.000,26.000 C22.000,26.000 22.913,28.039 24.000,28.000 C25.087,27.960 25.951,26.889 26.000,26.000 C26.049,25.111 27.000,13.000 27.000,13.000 C27.000,13.000 26.318,10.063 24.000,10.000 ZM24.000,30.000 C22.343,30.000 21.000,31.343 21.000,33.000 C21.000,34.657 22.343,36.000 24.000,36.000 C25.657,36.000 27.000,34.657 27.000,33.000 C27.000,31.343 25.657,30.000 24.000,30.000 Z"/>
        </g>
    </symbol>

    <symbol id="geo">
       <g>
           <path
            d="M12.000,31.999 C12.000,31.999 -0.000,18.627 -0.000,12.000 C-0.000,5.372 5.373,-0.000 12.000,-0.000 C18.627,-0.000 24.000,5.372 24.000,12.000 C24.000,18.627 12.000,31.999 12.000,31.999 ZM12.000,2.000 C6.477,2.000 2.000,6.701 2.000,12.500 C2.000,18.299 12.000,29.000 12.000,29.000 C12.000,29.000 22.000,18.299 22.000,12.500 C22.000,6.701 17.523,2.000 12.000,2.000 ZM12.000,19.000 C8.134,19.000 5.000,15.866 5.000,12.000 C5.000,8.134 8.134,5.000 12.000,5.000 C15.866,5.000 19.000,8.134 19.000,12.000 C19.000,15.866 15.866,19.000 12.000,19.000 ZM12.000,7.000 C9.239,7.000 7.000,9.238 7.000,12.000 C7.000,14.761 9.239,17.000 12.000,17.000 C14.761,17.000 17.000,14.761 17.000,12.000 C17.000,9.238 14.761,7.000 12.000,7.000 Z"/>
       </g>
    </symbol>

    <symbol id="surprise">
        <g>
            <path
            d="M20.000,12.000 L20.000,20.999 L2.000,20.999 L2.000,12.000 C2.000,12.000 0.024,12.539 -0.000,9.000 C-0.025,5.402 4.000,6.000 4.000,6.000 L6.000,6.000 C6.000,6.000 3.101,5.603 3.000,4.000 C2.868,1.909 5.188,1.087 6.000,1.000 C9.083,0.670 9.937,4.000 9.937,4.000 L11.973,4.006 C11.973,4.006 14.344,1.019 16.000,1.000 C17.848,0.978 18.969,1.806 19.062,4.297 C19.113,5.659 17.000,6.000 17.000,6.000 L20.000,6.000 C20.000,6.000 21.979,6.118 22.000,9.000 C22.017,11.336 20.000,12.000 20.000,12.000 ZM8.000,3.000 C7.312,2.125 5.062,2.656 5.000,4.000 C4.937,5.343 9.000,5.000 9.000,5.000 C9.000,5.000 8.687,3.875 8.000,3.000 ZM9.000,8.000 L3.000,8.000 C3.000,8.000 1.905,8.136 2.000,10.000 C2.057,11.116 3.000,11.000 3.000,11.000 L9.000,11.000 L9.000,8.000 ZM9.000,13.000 L4.000,13.000 L4.000,19.000 L9.000,19.000 L9.000,13.000 ZM13.000,19.000 L18.000,19.000 L18.000,13.000 L13.000,13.000 L13.000,19.000 ZM16.000,3.000 C14.656,2.906 13.000,5.000 13.000,5.000 C13.000,5.000 15.781,5.562 17.000,5.000 C18.219,4.437 17.344,3.093 16.000,3.000 ZM19.000,8.000 L13.000,8.000 L13.000,11.000 L19.000,11.000 C19.000,11.000 19.925,11.105 20.000,10.000 C20.139,7.927 19.000,8.000 19.000,8.000 Z"/>
        </g>
    </symbol>


    <symbol id="chair">
        <g>
            <path
            d="M75.000,88.999 C70.426,93.980 63.000,93.999 63.000,93.999 L13.000,93.999 C13.000,93.999 7.750,92.505 5.000,88.999 C1.567,84.623 -0.205,77.850 -0.000,74.999 C0.563,67.151 9.000,68.999 9.000,68.999 C9.000,68.999 5.836,59.053 8.000,49.000 C12.481,28.184 14.044,23.375 20.000,20.999 C24.847,19.066 31.000,18.999 31.000,18.999 L31.000,15.999 C31.000,15.999 25.448,17.014 23.000,12.999 C21.333,10.267 22.939,5.687 25.000,3.000 C26.801,0.651 29.000,-0.001 29.000,-0.001 L50.000,-0.001 C50.000,-0.001 53.041,-0.019 55.000,1.999 C57.908,4.997 59.810,10.782 57.000,13.999 C54.736,16.592 49.000,15.999 49.000,15.999 L49.000,18.999 C49.000,18.999 55.740,18.407 61.000,20.999 C66.093,23.509 69.949,31.064 73.000,49.999 C74.637,60.159 71.000,68.999 71.000,68.999 C71.000,68.999 77.617,67.751 79.000,73.999 C79.850,77.841 78.494,85.195 75.000,88.999 ZM22.000,90.999 L59.000,90.999 L59.000,77.999 C59.000,77.999 58.156,77.462 57.000,76.999 C55.668,76.467 54.000,75.999 54.000,75.999 L54.000,82.999 C54.000,82.999 53.260,83.958 52.000,84.000 C50.739,84.040 51.000,82.999 51.000,82.999 L51.000,75.999 L48.000,75.999 L48.000,82.999 C48.000,82.999 47.471,83.999 46.000,84.000 C44.684,84.000 44.000,82.999 44.000,82.999 L44.000,75.999 L42.000,75.999 L42.000,82.999 C42.000,82.999 41.391,83.887 40.000,84.000 C38.609,84.113 38.000,82.999 38.000,82.999 L38.000,75.999 L36.000,75.999 L36.000,82.999 C36.000,82.999 35.348,83.958 34.000,84.000 C32.652,84.040 32.000,82.999 32.000,82.999 L32.000,75.999 L30.000,75.999 L30.000,82.999 C30.000,82.999 29.167,83.958 28.000,84.000 C26.588,84.050 26.000,82.999 26.000,82.999 L26.000,76.999 C26.000,75.747 22.000,76.485 22.000,76.999 L22.000,90.999 ZM4.000,73.999 C2.848,76.594 4.597,82.617 8.000,87.000 C11.403,91.382 15.000,90.999 15.000,90.999 L19.000,90.999 L19.000,77.999 L16.000,77.999 C16.000,77.999 13.098,75.594 11.000,73.000 C8.901,70.405 5.152,71.405 4.000,73.999 ZM53.000,12.999 C53.000,12.999 54.572,12.528 55.000,8.999 C55.428,5.470 51.000,3.000 51.000,3.000 L30.000,3.000 C30.000,3.000 27.326,3.881 26.000,8.000 C24.674,12.117 28.000,12.999 28.000,12.999 L53.000,12.999 ZM34.000,15.999 L34.000,18.999 L46.000,18.999 L46.000,15.999 L34.000,15.999 ZM68.000,42.999 C65.244,34.205 64.489,24.202 58.000,22.999 C51.511,21.796 27.950,20.856 23.000,22.999 C17.624,25.327 14.768,32.616 13.000,39.000 C9.493,51.663 11.142,66.041 12.000,68.000 C14.282,73.205 18.000,74.999 18.000,74.999 C18.000,74.999 33.776,72.864 41.000,73.000 C48.224,73.135 62.000,74.999 62.000,74.999 C62.000,74.999 68.503,72.092 69.000,64.999 C69.497,57.907 70.756,51.794 68.000,42.999 ZM73.000,72.000 C68.604,71.776 67.968,74.764 66.000,75.999 C64.032,77.235 62.000,77.999 62.000,77.999 L62.000,90.999 L66.000,90.999 C66.000,90.999 71.890,89.126 74.000,84.000 C76.110,78.873 77.396,72.223 73.000,72.000 ZM57.000,70.999 C55.233,71.171 55.000,68.999 55.000,68.999 C55.000,68.999 54.568,37.202 53.000,33.999 C51.432,30.797 32.247,31.092 28.000,32.999 C23.753,34.907 25.000,68.999 25.000,68.999 C25.000,68.999 24.650,71.858 23.000,72.000 C21.349,72.141 21.000,70.000 21.000,70.000 C21.000,70.000 20.969,68.097 21.000,63.999 C21.031,59.902 21.386,35.382 25.000,30.999 C26.877,28.723 32.599,28.096 40.000,27.999 C47.401,27.903 54.273,29.594 56.000,31.999 C57.727,34.405 59.000,68.999 59.000,68.999 C59.000,68.999 58.766,70.828 57.000,70.999 Z"/>
        </g>
    </symbol>

    <symbol id="section2-arrow">
        <g>
            <path
            d="M198.707,48.135 L196.758,48.584 L196.569,47.763 L185.913,46.180 L186.207,44.202 L195.031,45.513 L187.328,36.214 L188.750,34.807 L195.450,42.896 L194.293,37.863 L196.242,37.415 L198.291,46.325 L198.672,46.785 L198.447,47.007 L198.707,48.135 ZM178.173,28.522 L179.456,26.987 L184.827,31.477 L183.544,33.011 L178.173,28.522 ZM167.976,22.089 L168.989,20.365 L175.024,23.910 L174.011,25.634 L167.976,22.089 ZM155.875,15.670 L156.596,13.804 L163.125,16.329 L162.404,18.195 L155.875,15.670 ZM142.861,9.934 L143.444,8.021 L150.139,10.064 L149.556,11.977 L142.861,9.934 ZM130.870,7.275 L131.273,5.316 L138.130,6.724 L137.727,8.683 L130.870,7.275 ZM117.871,4.287 L118.267,2.327 L125.129,3.712 L124.733,5.672 L117.871,4.287 ZM102.946,2.786 L103.067,0.790 L110.054,1.213 L109.933,3.209 L102.946,2.786 ZM89.915,1.371 L96.876,0.639 L97.085,2.628 L90.124,3.360 L89.915,1.371 ZM73.893,3.510 L80.821,2.509 L81.107,4.489 L74.179,5.489 L73.893,3.510 ZM59.863,7.848 L66.668,6.207 L67.137,8.151 L60.332,9.792 L59.863,7.848 ZM46.895,13.505 L53.294,10.666 L54.105,12.494 L47.706,15.333 L46.895,13.505 ZM34.997,20.989 L40.951,17.309 L42.003,19.010 L36.049,22.690 L34.997,20.989 ZM24.193,28.521 L29.503,23.960 L30.807,25.478 L25.496,30.038 L24.193,28.521 ZM15.330,36.788 L20.247,31.806 L21.670,33.211 L16.753,38.193 L15.330,36.788 ZM10.000,48.000 C10.000,50.761 7.761,53.000 5.000,53.000 C2.238,53.000 -0.000,50.761 -0.000,48.000 C-0.000,45.239 2.238,43.000 5.000,43.000 C6.164,43.000 7.232,43.401 8.082,44.068 L12.208,39.785 L13.648,41.173 L9.385,45.598 C9.777,46.311 10.000,47.129 10.000,48.000 ZM5.000,45.000 C3.343,45.000 2.000,46.343 2.000,48.000 C2.000,49.657 3.343,51.000 5.000,51.000 C6.657,51.000 8.000,49.657 8.000,48.000 C8.000,46.343 6.657,45.000 5.000,45.000 Z"/>
        </g>
    </symbol>

    <symbol id="section3-arrow">
        <g>
            <path
            d="M154.205,38.388 L154.250,38.459 L154.162,38.524 L150.535,50.014 L148.738,49.132 L151.444,40.560 L141.846,47.747 L140.781,46.061 L150.408,38.852 L140.514,38.015 L140.679,36.037 L152.555,37.040 L152.795,36.280 L154.593,37.162 L154.205,38.388 ZM130.103,51.384 L136.362,48.284 L137.262,50.062 L131.002,53.162 L130.103,51.384 ZM118.695,55.251 L125.387,53.216 L125.981,55.116 L119.289,57.151 L118.695,55.251 ZM105.437,58.667 L112.376,57.731 L112.653,59.699 L105.714,60.636 L105.437,58.667 ZM91.444,61.211 L98.435,60.780 L98.567,62.762 L91.576,63.194 L91.444,61.211 ZM79.096,63.005 L79.151,61.020 L86.155,61.239 L86.100,63.224 L79.096,63.005 ZM63.202,60.914 L63.257,58.928 L71.190,60.213 L71.135,62.199 L63.202,60.914 ZM49.372,55.826 L50.272,54.056 L56.530,57.207 L55.629,58.978 L49.372,55.826 ZM37.957,48.371 L39.165,46.791 L44.752,51.008 L43.544,52.588 L37.957,48.371 ZM28.070,38.399 L29.483,36.998 L34.446,41.925 L33.032,43.327 L28.070,38.399 ZM19.261,28.633 L20.877,27.467 L25.011,33.097 L23.395,34.263 L19.261,28.633 ZM12.510,18.604 L14.218,17.575 L17.872,23.522 L16.164,24.551 L12.510,18.604 ZM10.152,14.990 L7.109,9.902 C6.128,10.350 4.996,10.492 3.861,10.224 C1.170,9.588 -0.501,6.910 0.130,4.241 C0.760,1.573 3.453,-0.074 6.144,0.562 C8.836,1.198 10.506,3.876 9.876,6.544 C9.677,7.386 9.272,8.125 8.728,8.723 L11.873,13.981 L10.152,14.990 ZM5.688,2.494 C4.073,2.113 2.457,3.101 2.079,4.702 C1.701,6.303 2.703,7.910 4.318,8.291 C5.933,8.673 7.548,7.685 7.927,6.084 C8.305,4.483 7.302,2.876 5.688,2.494 Z"/>
        </g>
    </symbol>

    <symbol id="section6-arrow1">
        <g>
            <path
            d="M117.500,109.000 C115.937,109.000 114.562,108.202 113.755,106.992 L113.754,107.008 L102.019,106.414 L102.246,102.991 L113.107,103.541 C113.547,101.517 115.344,100.000 117.500,100.000 C119.985,100.000 122.000,102.014 122.000,104.500 C122.000,106.985 119.985,109.000 117.500,109.000 ZM117.500,102.000 C116.119,102.000 115.000,103.119 115.000,104.500 C115.000,105.881 116.119,107.000 117.500,107.000 C118.881,107.000 120.000,105.881 120.000,104.500 C120.000,103.119 118.881,102.000 117.500,102.000 ZM86.872,105.539 L87.174,102.555 L96.128,103.460 L95.826,106.445 L86.872,105.539 ZM71.798,103.126 L72.363,100.179 L81.202,101.874 L80.637,104.820 L71.798,103.126 ZM55.760,96.316 L56.818,93.509 L65.240,96.684 L64.181,99.491 L55.760,96.316 ZM43.858,89.523 L45.372,86.934 L53.142,91.476 L51.628,94.066 L43.858,89.523 ZM33.222,80.452 L35.306,78.294 L41.778,84.548 L39.694,86.706 L33.222,80.452 ZM23.508,69.938 L25.843,68.055 L31.492,75.062 L29.156,76.945 L23.508,69.938 ZM15.804,57.526 L18.327,55.904 L23.196,63.473 L20.672,65.096 L15.804,57.526 ZM9.248,46.047 L11.971,44.786 L15.752,52.953 L13.029,54.214 L9.248,46.047 ZM6.074,33.423 L9.005,32.783 L10.926,41.576 L7.995,42.216 L6.074,33.423 ZM6.000,8.724 L6.000,17.000 L3.000,17.000 L3.000,8.724 C1.256,8.104 -0.000,6.456 -0.000,4.500 C-0.000,2.015 2.015,-0.000 4.500,-0.000 C6.985,-0.000 9.000,2.015 9.000,4.500 C9.000,6.456 7.744,8.104 6.000,8.724 ZM4.500,2.000 C3.119,2.000 2.000,3.119 2.000,4.500 C2.000,5.881 3.119,7.000 4.500,7.000 C5.881,7.000 7.000,5.881 7.000,4.500 C7.000,3.119 5.881,2.000 4.500,2.000 ZM7.926,29.576 L4.995,30.216 L3.074,21.424 L6.005,20.784 L7.926,29.576 Z"/>
        </g>
    </symbol>

    <symbol id="section6-arrow2">
        <g>
            <path
            d="M148.622,16.254 C147.543,18.493 144.854,19.434 142.615,18.355 C140.852,17.506 139.913,15.659 140.111,13.819 L132.656,10.227 L133.958,7.524 L141.413,11.116 C142.728,9.814 144.758,9.398 146.521,10.247 C148.760,11.326 149.701,14.015 148.622,16.254 ZM145.653,12.049 C144.409,11.450 142.915,11.972 142.316,13.216 C141.716,14.460 142.239,15.954 143.483,16.553 C144.727,17.153 146.221,16.630 146.820,15.386 C147.419,14.142 146.897,12.648 145.653,12.049 ZM120.490,6.503 L121.185,3.585 L129.940,5.671 L129.245,8.590 L120.490,6.503 ZM108.377,3.998 L109.072,1.079 L117.827,3.165 L117.132,6.084 L108.377,3.998 ZM96.033,3.407 L96.079,0.408 L105.078,0.546 L105.032,3.546 L96.033,3.407 ZM82.957,2.570 L91.890,1.470 L92.257,4.447 L83.324,5.547 L82.957,2.570 ZM68.601,5.070 L77.365,3.023 L78.047,5.944 L69.283,7.992 L68.601,5.070 ZM55.234,10.327 L63.677,7.210 L64.716,10.025 L56.273,13.141 L55.234,10.327 ZM43.423,17.883 L50.887,12.855 L52.563,15.343 L45.099,20.372 L43.423,17.883 ZM33.087,26.838 L39.602,20.630 L41.672,22.801 L35.156,29.010 L33.087,26.838 ZM21.143,39.350 L26.507,32.122 L28.916,33.910 L23.552,41.137 L21.143,39.350 ZM13.087,52.328 L17.789,44.655 L20.347,46.222 L15.645,53.896 L13.087,52.328 ZM8.202,69.157 C9.834,70.432 10.422,72.710 9.486,74.652 C8.407,76.891 5.718,77.831 3.479,76.752 C1.240,75.674 0.299,72.984 1.378,70.745 C2.056,69.337 3.372,68.445 4.812,68.244 L4.798,68.236 L10.427,57.921 L13.412,59.611 L8.202,69.157 ZM3.180,71.613 C2.581,72.857 3.103,74.351 4.347,74.951 C5.591,75.550 7.085,75.027 7.684,73.784 C8.284,72.540 7.761,71.046 6.517,70.446 C5.273,69.847 3.779,70.370 3.180,71.613 Z"/>
        </g>
    </symbol>

    <symbol id="section6-arrow3">
        <g>
            <path
            d="M141.698,52.578 C139.898,53.963 137.323,53.626 135.946,51.825 C134.752,50.263 134.856,48.114 136.078,46.667 L129.662,39.102 L132.015,37.030 L138.947,45.204 L138.936,45.214 C140.259,45.124 141.598,45.675 142.464,46.808 C143.841,48.609 143.498,51.192 141.698,52.578 ZM141.015,47.923 C140.251,46.922 138.820,46.735 137.820,47.505 C136.820,48.274 136.630,49.709 137.394,50.710 C138.159,51.711 139.590,51.898 140.590,51.128 C141.590,50.359 141.780,48.924 141.015,47.923 ZM120.997,28.423 L122.991,26.540 L128.607,32.525 L126.613,34.407 L120.997,28.423 ZM111.072,19.013 L112.893,16.961 L119.017,22.422 L117.196,24.474 L111.072,19.013 ZM97.630,11.466 L99.077,9.134 L106.041,13.467 L104.595,15.799 L97.630,11.466 ZM86.528,6.836 L87.565,4.295 L95.158,7.393 L94.121,9.934 L86.528,6.836 ZM74.695,4.356 L75.103,1.643 L83.217,2.848 L82.809,5.561 L74.695,4.356 ZM62.038,3.206 L62.107,0.464 L70.311,0.652 L70.241,3.394 L62.038,3.206 ZM48.851,1.799 L57.030,1.108 L57.253,3.841 L49.074,4.533 L48.851,1.799 ZM36.906,3.447 L44.915,1.635 L45.511,4.311 L37.501,6.123 L36.906,3.447 ZM26.006,8.183 L33.438,4.674 L34.598,7.155 L27.166,10.664 L26.006,8.183 ZM15.654,12.698 L23.085,9.189 L24.245,11.670 L16.814,15.179 L15.654,12.698 ZM6.680,26.426 C4.880,27.812 2.305,27.474 0.928,25.674 C-0.448,23.872 -0.105,21.289 1.695,19.904 C3.111,18.813 5.001,18.805 6.416,19.723 L12.409,15.110 L14.071,17.285 L8.078,21.897 C8.595,23.507 8.097,25.336 6.680,26.426 ZM5.998,21.772 C5.233,20.771 3.802,20.584 2.802,21.353 C1.802,22.123 1.612,23.558 2.377,24.559 C3.142,25.559 4.572,25.747 5.572,24.977 C6.572,24.207 6.763,22.772 5.998,21.772 Z"/>
        </g>
    </symbol>

    <symbol id="section6-arrow4">
        <g>
            <path
            d="M142.153,6.633 C141.288,7.766 139.951,8.318 138.630,8.228 L138.641,8.238 L131.720,16.417 L129.370,14.344 L135.776,6.774 C134.556,5.326 134.452,3.177 135.645,1.613 C137.019,-0.189 139.591,-0.526 141.388,0.860 C143.185,2.246 143.527,4.831 142.153,6.633 ZM140.282,2.310 C139.283,1.540 137.855,1.728 137.091,2.729 C136.327,3.730 136.518,5.166 137.516,5.936 C138.514,6.706 139.943,6.519 140.707,5.518 C141.470,4.516 141.280,3.080 140.282,2.310 ZM120.718,25.029 L126.326,19.041 L128.317,20.925 L122.710,26.913 L120.718,25.029 ZM110.809,34.444 L116.923,28.980 L118.741,31.033 L112.627,36.497 L110.809,34.444 ZM97.388,41.996 L104.341,37.660 L105.786,39.993 L98.832,44.329 L97.388,41.996 ZM86.302,46.629 L93.884,43.528 L94.919,46.071 L87.337,49.171 L86.302,46.629 ZM74.487,49.110 L82.589,47.904 L82.996,50.619 L74.894,51.825 L74.487,49.110 ZM61.849,50.261 L70.040,50.073 L70.110,52.817 L61.919,53.005 L61.849,50.261 ZM48.683,51.668 L48.905,48.933 L57.072,49.625 L56.849,52.360 L48.683,51.668 ZM36.756,50.019 L37.350,47.342 L45.347,49.156 L44.753,51.833 L36.756,50.019 ZM25.873,45.281 L27.031,42.798 L34.451,46.310 L33.293,48.792 L25.873,45.281 ZM15.536,40.763 L16.694,38.281 L24.115,41.792 L22.957,44.274 L15.536,40.763 ZM12.296,38.350 L6.312,33.734 C4.900,34.653 3.013,34.644 1.598,33.553 C-0.199,32.167 -0.541,29.582 0.833,27.780 C2.208,25.978 4.779,25.641 6.576,27.027 C7.991,28.118 8.488,29.948 7.972,31.558 L13.956,36.174 L12.296,38.350 ZM5.470,28.477 C4.472,27.707 3.043,27.894 2.280,28.896 C1.516,29.897 1.706,31.333 2.705,32.103 C3.703,32.873 5.131,32.685 5.895,31.684 C6.659,30.683 6.468,29.247 5.470,28.477 Z"/>
        </g>
    </symbol>

    <symbol id="section7-arrow">
        <g>
            <path
            d="M64.326,51.545 L62.328,51.446 L62.674,44.455 L64.672,44.554 L64.326,51.545 ZM58.704,33.834 L60.648,33.363 L62.296,40.166 L60.352,40.637 L58.704,33.834 ZM52.720,23.649 L54.382,22.536 L58.280,28.350 L56.618,29.464 L52.720,23.649 ZM46.343,16.187 L47.777,14.793 L52.657,19.812 L51.223,21.206 L46.343,16.187 ZM37.992,11.029 L39.035,9.322 L45.008,12.971 L43.965,14.678 L37.992,11.029 ZM29.888,94.454 L36.327,91.707 L37.112,93.546 L30.673,96.293 L29.888,94.454 ZM28.872,6.704 L29.576,4.832 L36.128,7.296 L35.424,9.168 L28.872,6.704 ZM18.902,96.446 L25.847,95.570 L26.098,97.554 L19.153,98.430 L18.902,96.446 ZM17.898,4.527 L18.164,2.544 L25.102,3.473 L24.836,5.455 L17.898,4.527 ZM5.507,98.959 L13.375,103.231 L12.433,104.926 L1.009,98.724 L1.429,97.967 L1.044,97.251 L12.431,90.980 L13.350,92.688 L5.485,97.020 L15.012,97.053 L14.987,98.993 L5.507,98.959 ZM4.500,9.000 C2.015,9.000 -0.000,6.985 -0.000,4.500 C-0.000,2.014 2.015,-0.000 4.500,-0.000 C6.456,-0.000 8.104,1.256 8.724,3.000 L15.000,3.000 L15.000,5.000 L8.950,5.000 C8.698,7.247 6.814,9.000 4.500,9.000 ZM4.500,2.000 C3.119,2.000 2.000,3.119 2.000,4.500 C2.000,5.881 3.119,7.000 4.500,7.000 C5.881,7.000 7.000,5.881 7.000,4.500 C7.000,3.119 5.881,2.000 4.500,2.000 ZM47.794,86.450 L42.522,91.056 L41.206,89.550 L46.478,84.944 L47.794,86.450 ZM55.381,76.775 L51.230,82.411 L49.619,81.225 L53.770,75.589 L55.381,76.775 ZM60.885,67.250 L57.927,73.594 L56.115,72.749 L59.073,66.405 L60.885,67.250 ZM62.199,55.372 L64.161,55.761 L62.800,62.628 L60.839,62.238 L62.199,55.372 Z"/>
        </g>
    </symbol>

    <symbol id="section8-arrow1">
        <g>
            <path
            d="M78.567,40.588 C76.625,40.625 75.021,39.089 74.984,37.158 C74.974,36.628 75.091,36.128 75.295,35.674 L69.104,33.324 L69.821,31.457 L76.736,34.082 C77.238,33.790 77.810,33.605 78.432,33.593 C80.374,33.556 81.978,35.092 82.015,37.023 C82.052,38.955 80.509,40.551 78.567,40.588 ZM78.471,35.591 C77.639,35.607 76.977,36.291 76.993,37.119 C77.009,37.947 77.696,38.605 78.528,38.589 C79.361,38.574 80.022,37.889 80.006,37.062 C79.990,36.234 79.303,35.576 78.471,35.591 ZM59.967,28.500 L60.684,26.633 L67.884,29.366 L67.167,31.233 L59.967,28.500 ZM49.826,23.695 L50.543,21.828 L57.742,24.561 L57.026,26.428 L49.826,23.695 ZM39.685,18.890 L40.401,17.023 L47.601,19.755 L46.885,21.623 L39.685,18.890 ZM28.539,14.104 L29.256,12.236 L36.455,14.970 L35.739,16.837 L28.539,14.104 ZM17.393,9.318 L18.110,7.451 L25.309,10.184 L24.593,12.051 L17.393,9.318 ZM13.447,7.266 L7.634,5.059 C7.070,6.189 5.921,6.984 4.564,7.010 C2.623,7.047 1.018,5.511 0.981,3.580 C0.944,1.648 2.488,0.052 4.430,0.015 C6.233,-0.019 7.728,1.309 7.964,3.045 L14.164,5.398 L13.447,7.266 ZM4.468,2.014 C3.636,2.030 2.974,2.714 2.990,3.542 C3.006,4.369 3.694,5.028 4.526,5.012 C5.358,4.996 6.020,4.312 6.004,3.484 C5.988,2.656 5.300,1.998 4.468,2.014 Z"/>
        </g>
    </symbol>

    <symbol id="section8-arrow2">
        <g>
            <path
            d="M83.371,28.287 C81.461,28.637 79.627,27.380 79.276,25.480 C79.179,24.959 79.214,24.447 79.340,23.966 L72.849,22.647 L73.251,20.688 L80.503,22.162 C80.950,21.794 81.485,21.518 82.097,21.406 C84.007,21.056 85.840,22.313 86.192,24.213 C86.544,26.113 85.281,27.937 83.371,28.287 ZM84.216,24.575 C84.065,23.761 83.279,23.222 82.461,23.372 C81.642,23.522 81.101,24.304 81.252,25.118 C81.403,25.932 82.188,26.471 83.007,26.321 C83.825,26.171 84.367,25.389 84.216,24.575 ZM63.046,19.362 L63.448,17.403 L70.998,18.938 L70.596,20.896 L63.046,19.362 ZM52.255,16.258 L52.658,14.299 L60.208,15.834 L59.805,17.792 L52.255,16.258 ZM41.465,13.154 L41.867,11.195 L49.417,12.730 L49.015,14.688 L41.465,13.154 ZM29.686,10.231 L30.088,8.272 L37.638,9.807 L37.236,11.765 L29.686,10.231 ZM17.907,7.308 L18.309,5.349 L25.859,6.884 L25.457,8.842 L17.907,7.308 ZM13.678,5.919 L7.583,4.680 C7.210,5.887 6.206,6.857 4.872,7.101 C2.962,7.451 1.128,6.195 0.776,4.295 C0.425,2.395 1.688,0.571 3.598,0.221 C5.372,-0.104 7.063,0.964 7.580,2.639 L14.081,3.961 L13.678,5.919 ZM5.717,3.390 C5.566,2.575 4.780,2.037 3.962,2.186 C3.143,2.336 2.602,3.118 2.753,3.932 C2.903,4.747 3.689,5.285 4.508,5.135 C5.326,4.985 5.868,4.204 5.717,3.390 Z"/>
        </g>
    </symbol>

    <symbol id="section8-arrow3">
        <g>
            <path
            d="M85.538,6.620 C83.971,7.761 81.770,7.422 80.624,5.863 C80.309,5.435 80.117,4.959 80.021,4.471 L73.598,6.089 L73.105,4.151 L80.280,2.344 C80.522,1.819 80.883,1.340 81.385,0.974 C82.953,-0.167 85.153,0.172 86.299,1.732 C87.446,3.291 87.105,5.480 85.538,6.620 ZM84.678,2.912 C84.186,2.244 83.243,2.099 82.572,2.587 C81.900,3.076 81.754,4.014 82.245,4.682 C82.737,5.351 83.680,5.496 84.351,5.007 C85.023,4.518 85.169,3.580 84.678,2.912 ZM62.841,5.430 L70.311,3.548 L70.804,5.486 L63.334,7.368 L62.841,5.430 ZM51.766,7.299 L59.236,5.417 L59.730,7.355 L52.259,9.237 L51.766,7.299 ZM40.692,9.168 L48.162,7.286 L48.655,9.224 L41.185,11.105 L40.692,9.168 ZM28.806,11.626 L36.276,9.745 L36.770,11.683 L29.299,13.564 L28.806,11.626 ZM16.921,14.085 L24.391,12.204 L24.884,14.142 L17.414,16.023 L16.921,14.085 ZM5.583,21.472 C4.016,22.613 1.816,22.274 0.669,20.714 C-0.478,19.155 -0.137,16.966 1.430,15.826 C2.889,14.764 4.895,14.986 6.091,16.278 L12.506,14.663 L12.999,16.600 L6.967,18.120 C7.159,19.368 6.678,20.675 5.583,21.472 ZM4.723,17.764 C4.232,17.095 3.289,16.950 2.617,17.439 C1.945,17.928 1.799,18.866 2.291,19.534 C2.782,20.202 3.725,20.348 4.397,19.859 C5.069,19.370 5.215,18.432 4.723,17.764 Z"/>
        </g>
    </symbol>

    <symbol id="section8-arrow4">
        <g>
            <path
            d="M83.376,6.380 C81.998,7.742 79.771,7.734 78.403,6.363 C78.027,5.987 77.765,5.545 77.597,5.077 L71.490,7.634 L70.711,5.791 L77.533,2.935 C77.693,2.380 77.978,1.852 78.420,1.416 C79.797,0.055 82.024,0.062 83.392,1.433 C84.761,2.804 84.753,5.019 83.376,6.380 ZM81.967,2.842 C81.380,2.254 80.426,2.251 79.835,2.834 C79.245,3.418 79.242,4.367 79.828,4.955 C80.415,5.542 81.369,5.545 81.960,4.962 C82.550,4.378 82.553,3.429 81.967,2.842 ZM60.755,8.585 L67.858,5.611 L68.637,7.454 L61.534,10.427 L60.755,8.585 ZM50.087,12.082 L57.190,9.109 L57.969,10.951 L50.866,13.925 L50.087,12.082 ZM39.418,15.580 L46.521,12.607 L47.300,14.449 L40.198,17.422 L39.418,15.580 ZM28.037,19.782 L35.140,16.809 L35.919,18.651 L28.816,21.624 L28.037,19.782 ZM16.656,23.984 L23.759,21.010 L24.538,22.853 L17.435,25.826 L16.656,23.984 ZM6.558,32.976 C5.180,34.338 2.954,34.330 1.585,32.959 C0.217,31.589 0.224,29.374 1.602,28.012 C2.882,26.748 4.885,26.680 6.262,27.772 L12.377,25.212 L13.157,27.055 L7.422,29.455 C7.799,30.661 7.521,32.025 6.558,32.976 ZM3.018,29.431 C2.428,30.014 2.425,30.963 3.011,31.551 C3.598,32.138 4.552,32.141 5.142,31.558 C5.733,30.974 5.736,30.025 5.150,29.438 C4.563,28.850 3.609,28.847 3.018,29.431 Z"/>
        </g>
    </symbol>
</svg>